<svg width="20" height="24" viewBox="0 0 20 24" fill="none" xmlns="http://www.w3.org/2000/svg">
<path fill-rule="evenodd" clip-rule="evenodd" d="M0.75 9C1.16419 9 1.5 9.33581 1.5 9.75C1.5 10.1642 1.16419 10.5 0.75 10.5C0.335812 10.5 0 10.1642 0 9.75C0 9.33581 0.335812 9 0.75 9ZM16.5 18C16.5 18 15.5497 18 14.625 18C11.751 18 7.749 15 4.875 15C3.9503 15 3 15 3 15C2.17162 15 1.5 15.6716 1.5 16.5V23.25C1.5 23.6642 1.16419 24 0.75 24C0.335812 24 0 23.6642 0 23.25V16.5C0 14.8433 1.34325 13.5 3 13.5C3 13.5 5.01638 13.5 5.25 13.5C8.124 13.5 12.126 16.5 15 16.5C15.9247 16.5 16.5 16.5 16.5 16.5C17.3284 16.5 18 15.8284 18 15V7.5C18 6.67163 17.3284 6 16.5 6C16.5 6 15.1747 6 14.25 6C11.376 6 7.374 3 4.5 3C3.5753 3 3 3 3 3C2.17162 3 1.5 3.67162 1.5 4.5V6.75C1.5 7.16419 1.16419 7.5 0.75 7.5C0.335812 7.5 0 7.16419 0 6.75V4.5C0 2.84325 1.34325 1.5 3 1.5C3 1.5 3.9503 1.5 4.875 1.5C7.749 1.5 11.751 4.5 14.625 4.5C15.5497 4.5 16.5 4.5 16.5 4.5C18.1567 4.5 19.5 5.84325 19.5 7.5V15C19.5 16.6567 18.1567 18 16.5 18ZM0.75 1.5C0.335812 1.5 0 1.16419 0 0.75C0 0.335812 0.335812 0 0.75 0C1.16419 0 1.5 0.335812 1.5 0.75C1.5 1.16419 1.16419 1.5 0.75 1.5Z" fill="#DDE4FF"/>
</svg>
